<svg width="346" height="335" viewBox="0 0 346 335" fill="none" xmlns="http://www.w3.org/2000/svg">
<g clip-path="url(#clip0_1_240)">
<path d="M168.348 52.9835C228.547 52.9835 277.348 101.785 277.348 161.984C277.348 222.184 228.547 270.985 168.348 270.985C108.148 270.985 59.347 222.184 59.347 161.984C59.347 101.785 108.148 52.9835 168.348 52.9835Z" fill="#F2F2F2"/>
<path d="M168.348 91.5638C207.24 91.5638 238.768 123.092 238.768 161.984C238.768 200.876 207.24 232.404 168.348 232.404C129.456 232.404 97.9273 200.876 97.9273 161.984C97.9273 123.092 129.456 91.5638 168.348 91.5638Z" fill="#E6E6E6"/>
<path d="M28.3794 211.904L51.0734 211.904C51.0734 199.373 40.9104 189.217 28.3794 189.217C22.1102 189.217 16.4404 191.76 12.3343 195.859C8.23574 199.965 5.69278 205.635 5.69278 211.904L28.3794 211.904Z" fill="#F2F2F2"/>
<path d="M311.351 267.463C327.344 267.463 340.307 247.851 340.307 223.654C340.307 199.457 327.344 190.447 311.351 190.447C295.359 190.447 282.396 199.457 282.396 223.654C282.396 247.851 295.359 267.463 311.351 267.463Z" fill="#F2F2F2"/>
<path d="M324.285 68.6488C324.915 61.0814 318.942 54.5919 311.351 54.5919C303.754 54.5919 297.78 61.0814 298.41 68.6488L301.264 103.039C301.545 106.47 304.414 109.111 307.86 109.111L311.351 109.111L314.843 109.111C318.282 109.111 321.15 106.47 321.439 103.039L324.285 68.6488Z" fill="#F2F2F2"/>
<path d="M41.92 68.6487C42.5498 61.0814 36.5766 54.5918 28.9863 54.5918C21.3885 54.5918 15.4152 61.0814 16.0451 68.6487L18.8989 103.039C19.18 106.47 22.0487 109.111 25.4945 109.111L28.3787 109.111L32.4773 109.111C35.9157 109.111 38.7844 106.469 39.0729 103.039L41.92 68.6487Z" fill="#F2F2F2"/>
<path d="M255.543 227.658C252.938 225.897 252.253 222.359 254.013 219.753C265.552 202.673 271.652 182.702 271.652 161.998C271.652 105.035 225.31 58.6932 168.348 58.6932C111.384 58.6932 65.0425 105.035 65.0425 161.998C65.0425 218.961 111.385 265.303 168.348 265.303C195.94 265.303 221.884 254.557 241.395 235.045C243.619 232.821 247.223 232.822 249.446 235.045C251.669 237.269 251.669 240.873 249.446 243.095C227.783 264.759 198.982 276.69 168.348 276.69C105.107 276.69 53.6569 225.241 53.6569 162C53.6569 98.7602 105.106 47.3097 168.347 47.3097C231.588 47.3097 283.037 98.7595 283.037 162C283.037 184.982 276.263 207.158 263.446 226.128C261.686 228.733 258.149 229.418 255.543 227.658Z" fill="#5B5B5B"/>
<path d="M222.102 116.148C224.648 114.307 228.207 114.875 230.051 117.423C239.48 130.452 244.463 145.867 244.463 161.999C244.463 203.969 210.318 238.115 168.348 238.115C126.377 238.115 92.2318 203.97 92.2318 161.999C92.2318 120.028 126.377 85.8839 168.348 85.8839C185.576 85.8839 202.458 91.8017 215.881 102.548C218.336 104.512 218.733 108.095 216.769 110.549C214.803 113.004 211.22 113.402 208.767 111.436C197.189 102.167 183.213 97.2687 168.348 97.2687C132.656 97.2687 103.617 126.307 103.617 162C103.617 197.692 132.656 226.731 168.348 226.731C204.04 226.731 233.079 197.692 233.079 162C233.079 148.279 228.843 135.173 220.827 124.097C218.984 121.551 219.554 117.992 222.102 116.148Z" fill="#5B5B5B"/>
<path d="M56.7662 211.92L56.7662 265.799C56.7662 268.916 54.3638 271.634 51.2484 271.727C48.025 271.824 45.3813 269.239 45.3813 266.037L45.3813 223.264C45.3813 220.143 42.8519 217.613 39.7305 217.613L39.7223 217.613C36.6016 217.613 34.0715 220.142 34.0715 223.264L34.0715 265.799C34.0715 268.917 31.6691 271.635 28.5537 271.728C25.3303 271.825 22.6866 269.24 22.6866 266.038L22.6866 223.265C22.6866 220.144 20.1572 217.614 17.0357 217.614C13.915 217.614 11.3849 220.143 11.3849 223.265L11.3849 265.8C11.3849 268.918 8.98247 271.636 5.86712 271.729C2.64298 271.823 2.17925e-07 269.239 4.9778e-07 266.037L5.22885e-06 211.92C5.89106e-06 204.345 2.94979 197.219 8.31278 191.846C12.3073 187.858 17.2804 185.207 22.6866 184.112L22.6866 114.478C17.6162 113.271 13.6656 108.897 13.2257 103.526L10.3719 69.1373C9.94074 63.9501 11.7147 58.7776 15.2395 54.946C18.7658 51.1136 23.7767 48.916 28.9856 48.916C34.1911 48.916 39.198 51.1136 42.7242 54.9446C46.2497 58.7763 48.0236 63.9494 47.5925 69.1353L44.7454 103.533C44.2582 109.324 39.7028 113.954 34.0715 114.703L34.0715 184.115C47.0059 186.757 56.7662 198.22 56.7662 211.92ZM12.3789 206.227L44.3967 206.227C42.0491 199.648 35.7569 194.926 28.3787 194.926C23.8408 194.926 19.5713 196.694 16.362 199.895C14.5475 201.715 13.2129 203.877 12.3789 206.227ZM34.3465 62.6539C32.9497 61.1368 31.0467 60.3008 28.9856 60.3008C26.9204 60.3008 25.0147 61.1375 23.6172 62.6559C22.2217 64.1731 21.5466 66.1389 21.7182 68.1946L24.572 102.591C24.6112 103.065 25.016 103.435 25.4952 103.435L32.478 103.435C32.9551 103.435 33.3606 103.059 33.4004 102.586L36.2468 68.1933C36.4171 66.1389 35.7434 64.1717 34.3465 62.6539Z" fill="#5B5B5B"/>
<path d="M335.866 193.981C342.59 200.753 346 210.742 346 223.669C346 236.475 342.653 248.592 336.576 257.787C330.018 267.709 321.061 273.172 311.352 273.172C301.644 273.172 292.685 267.708 286.128 257.787C280.051 248.592 276.703 236.476 276.703 223.669C276.703 210.742 280.113 200.754 286.837 193.981C291.654 189.13 298.09 186.124 305.66 185.135L305.66 114.613C300.298 113.625 296.05 109.11 295.592 103.526L292.738 69.1367C292.307 63.9487 294.081 58.7763 297.605 54.9453C301.132 51.113 306.143 48.9153 311.351 48.9153C316.557 48.9153 321.564 51.113 325.09 54.944C328.616 58.7756 330.389 63.9487 329.958 69.1347L327.111 103.532C326.642 109.114 322.394 113.623 317.044 114.613L317.044 185.134C324.614 186.124 331.048 189.13 335.866 193.981ZM288.088 223.669C288.088 244.331 298.741 261.787 311.351 261.787C323.961 261.787 334.614 244.331 334.614 223.669C334.614 205.412 326.788 196.156 311.351 196.156C295.916 196.156 288.088 205.412 288.088 223.669ZM316.712 62.6539C315.315 61.1368 313.412 60.3009 311.351 60.3009C309.286 60.3009 307.38 61.1375 305.982 62.6553C304.587 64.1724 303.912 66.1383 304.083 68.1947L306.937 102.591C306.976 103.065 307.381 103.435 307.86 103.435L314.842 103.435C315.32 103.435 315.726 103.059 315.766 102.586L318.612 68.1933C318.783 66.139 318.108 64.1717 316.712 62.6539Z" fill="#5B5B5B"/>
</g>
<defs>
<clipPath id="clip0_1_240">
<rect width="346" height="346" fill="white" transform="matrix(1 8.74228e-08 8.74228e-08 -1 0 335)"/>
</clipPath>
</defs>
</svg>
